<svg width="264" height="200" viewBox="0 0 264 200" fill="none" xmlns="http://www.w3.org/2000/svg"><g clip-path="url(#clip0)"><g clip-path="url(#clip1)"><path d="M182.6 88.4c.7-9.2-2.3-18.1-5.5-26.7a47.5 47.5 0 00-16.2-24.2A4.2 4.2 0 01159 34l-.2.1c-7.8 2.9-15.5 6.4-22.9 9.7l-7.1 2.8a71.3 71.3 0 01-4.3 3.4l-1.2 1-.5.8-6.9 6.2-4.5 4.4-.9 1.8c-.6 1.7-.3 3.4.1 5.1.6 2 1.5 3.9 2.3 5.8l2.7 6.1a148 148 0 0015.3 25 151.3 151.3 0 0024.7-4.9c9.6-2.7 18.9-6.1 28.1-9.8a4 4 0 01-1.1-3.1zM211.1 53.8l-.4-.9c-2.3-5.5-4.4-11.7-8.2-16.4a52 52 0 00-17.9-12.2c-7.5-3.6-10.1 3.4-18.2 6.6a53.2 53.2 0 0117.4 24.5 75.7 75.7 0 017.4 33v.2l1.2-.5c6.6-2.8 13.6-5.3 19.8-8.7 1.9-1.1 3.4-2.3 4.3-3.8-1.7-7.3-3.5-14.6-5.4-21.8z" fill="#FFD000"/><path d="M189.6 162.7c9.1-.1 18.4-1.2 26.7-5.2a34.1 34.1 0 0015.5-16.1c.8-1.7 1.7-3.5 2-5.4.3-2-.1-3.8-.8-5.6-1.2-2.9-3.2-6.5-6.8-6.3-1.8.1-3.7 1.7-5.5 1.1-1.5-.5-2.5-2.2-3.2-3.6-2-4-3.4-8.3-5.2-12.4a45 45 0 00-17.9-22.4c-1.7-.9-3.2 1.7-1.5 2.6a39 39 0 0115.3 18c1.9 4 3.5 8.2 5.2 12.3 1.2 3 2.5 6.8 5.8 8.2 1.7.8 3.5.5 5.2-.2 1.6-.6 2.7-.8 3.9.6 2.2 2.5 3.2 6 2.1 9.1-2.4 6.6-7 12.6-13.1 16.3a54 54 0 01-27.7 6.2c-2-.2-2 2.8 0 2.8zM178.6 95.1l1.1.8-.3-.2 3.4 2.9c.6.5 1.6.6 2.1 0s.6-1.5 0-2.1a46.3 46.3 0 00-4.8-4c-.3-.2-.8-.2-1.2-.2a2 2 0 00-.9.7c-.2.3-.3.8-.2 1.2.2.4.4.7.8.9zM180 70.7a683.7 683.7 0 00-41 18.4c-1.7.8-.2 3.4 1.5 2.6a696.2 696.2 0 0140.3-18.1c1.8-.8 1-3.7-.8-2.9zM201 62.5l-11.6 4.4c-.8.3-1.3 1-1 1.8.2.7 1.1 1.3 1.8 1l11.6-4.4c.8-.3 1.3-1 1-1.8-.2-.7-1-1.3-1.8-1z" fill="#1B1B20"/><path d="M155.9 32.2c-8.7 3.5-16.4 8.7-24.4 13.4a124 124 0 01-6.2 3.5c-1 .5-2.1.9-3 1.5-.4.2-.6.6-.7 1-.3 1 .3 2.2.6 3.1 1.4 4.1 3.2 8 4.9 12l6.5 14.9 4.6 10.4c.8 1.8 3.4.2 2.6-1.5L131 68.4a274 274 0 01-6.4-16.2v-.1c-.4 1.7-.1.4 0 .3-.4.6-1.1 1 0 .5l5.9-3.1c8.7-5 17-10.9 26.3-14.7 1.7-.7.9-3.6-.9-2.9zM201.9 62.4a2310 2310 0 01-9.5-23.5L187.6 27c-.6-1.6-1.2-4-2.6-5-.9-.6-1.9-.5-2.8-.2a52 52 0 00-3.6 1.3c-4.5 1.5-9 2.9-13.4 4.6-1.8.7-1 3.6.8 2.9 3.6-1.4 7.3-2.6 11-3.8l2.7-.9c1.1-.4 2.3-1 3.4-1.2.5-.1.4-.1.6.5l.4 1.1 1 2.5 9.1 22.6 4.8 11.8c.8 1.7 3.7 1 2.9-.8z" fill="#1B1B20"/><path d="M201.4 66.1c4.8 2.6 9.3 5.7 13.4 9.4 1.4 1.3 3.6-.8 2.1-2.1a71.8 71.8 0 00-14-9.8c-1.7-1-3.2 1.6-1.5 2.5zM184.5 23.7l15.6 11c.7.5 1.7.1 2.1-.5.4-.8.1-1.6-.5-2.1l-15.6-11c-.7-.5-1.7-.1-2.1.5-.5.8-.2 1.6.5 2.1z" fill="#1B1B20"/><path d="M193.7 87.2l22.7-9.4c.8-.3 1.3-1 1-1.8-.2-.7-1.1-1.4-1.8-1l-22.7 9.4c-.8.3-1.3 1-1 1.8.2.6 1.1 1.3 1.8 1zM136.4 91.7c-2 6.2-5.3 12.4-4.9 19.1 0 .9.9 1.8 1.9 1.4l50.7-21c1.8-.7 1-3.6-.8-2.9l-50.7 21 1.9 1.4c-.3-6.3 2.9-12.4 4.8-18.3.6-1.8-2.3-2.5-2.9-.7z" fill="#1B1B20"/><path d="M122.6 51.9l-7.1 5.6c-1.9 1.5-4 2.9-5.7 4.6-3 3.1-.9 6.8.7 10.1 4 8.4 8.7 16.6 13.2 24.7 2.4 4.3 4.7 8.6 6.9 13 .9 1.7 3.4.2 2.6-1.5-3.8-7.8-8.2-15.2-12.3-22.8l-6.2-11.7-2.6-5.3c-.5-1.2-1.4-2.8-.5-4.1.5-.7 1.4-1.3 2.1-1.9l3.4-2.7 7.6-6c1.5-1-.6-3.1-2.1-2zM166.5 42.2c-9.4 3.7-18.7 7.6-27.8 11.9-1.7.8-.2 3.4 1.5 2.6 8.9-4.2 17.9-8 27.1-11.6 1.7-.7 1-3.6-.8-2.9z" fill="#1B1B20"/><path d="M165.6 44.8c1.2 1.8 2 3.8 2.6 5.9.5 1.7 1.1 4 .1 5.7l-.6.8-.2.2-.4.2c-.7.3-1.3.3-1.9.3a5.6 5.6 0 01-3.8-2.4c-1.3-1.8-2-4-2.7-6.1-.6-1.8-3.5-1-2.9.8 1.4 4.2 3.3 9.7 8.3 10.6 2.1.4 4.4 0 5.9-1.6 1.9-2 1.9-4.9 1.4-7.5-.6-3-1.7-5.8-3.3-8.4-.9-1.7-3.5-.2-2.5 1.5z" fill="#1B1B20"/><path d="M159.5 57.7c1.3 2.1-.1 4.6-1.7 6.1-.9.9-2 1.7-3 2.5a8.5 8.5 0 01-3.7 1.8c-2.3.4-4.3-1.3-5.4-3.1a16.6 16.6 0 01-2-8.2c-.1-1.9-3.1-1.9-3 0 .3 5.3 1.6 11.6 7.1 13.8 2.5 1 5.2.4 7.4-.9 2.2-1.4 4.6-3.2 6.2-5.3 1.7-2.3 2.4-5.6.8-8.2-1.1-1.6-3.7-.1-2.7 1.5zM199.9 34.1c5.9 13.6 11 27.6 15.3 41.8.6 1.8 3.5 1.1 2.9-.8a354.2 354.2 0 00-15.6-42.5c-.7-1.7-3.3-.2-2.6 1.5z" fill="#1B1B20"/><path d="M187.5 166.4c.3-.5.8-.7 1.3-1.1.5-.4.9-1 1.2-1.6.7-1.3.9-2.7 1.2-4.2a105 105 0 001.4-9.8l1.7-19c.9-12.1 1.3-24.3.4-36.4a131 131 0 00-7.2-35.6c-2-5.5-4.4-10.9-7.6-15.8A43.4 43.4 0 00168.4 31c-2.5-1.7-4.9-3.8-8-4.6-3-.7-6.4.1-9.2 1-3.1 1-6.3 2.5-8.7 4.8-2.7 2.6-2.8 6.5-3 10-.1 1.9 2.9 1.9 3 0 .1-1.6.2-3.3.5-4.8.3-1.6 1-2.6 2.2-3.6a20 20 0 017.6-3.7c2.5-.7 5.2-1.4 7.7-.5 2.4.9 4.3 2.6 6.4 4 4.4 3.1 8 6.9 10.9 11.5 2.9 4.6 5.1 9.6 7 14.6 7.9 21.5 8.3 45 6.9 67.6-.4 6.5-1 12.9-1.6 19.3-.3 3.6-.7 7.1-1.3 10.6-.3 1.5-.5 3.1-1 4.5-.5 1.3-1.9 1.8-2.6 3-1.2 1.8 1.4 3.4 2.3 1.7z" fill="#1B1B20"/><path d="M177.4 165.6c5.5-1.4 5.2-8.2 5.6-12.7.6-6 1.2-11.9 2-17.9.8-5.8 2-11.5 2-17.3 0-5.7-.6-11.4-1.2-17.1-.5-5.6-.7-11.2-1.4-16.7a127 127 0 00-3.1-16.1c-1.4-5.3-3.2-10.5-5.4-15.4a43 43 0 00-13.1-16.8c-1.9-1.4-4.1-3.1-6.5-3.6a8.7 8.7 0 00-6.5 1.1c-1.5.9-5 3.9-2.9 5.7 1.4 1.3 3.6-.8 2.1-2.1l-.2-.1.4 1.1c0-.5 1.3-1.5 1.7-1.8.7-.5 1.6-.9 2.5-1 1.9-.3 3.5.4 5.1 1.4a37.9 37.9 0 0115.3 19.1 101.4 101.4 0 017.4 28.7c.6 5 .8 10 1.2 15.1.4 5.1 1.1 10.3 1.3 15.5.2 5.3-.4 10.4-1.2 15.6-1 5.8-1.7 11.6-2.3 17.5l-.9 9.1c-.2 2.2-.5 5.2-3.1 5.9-1.4.4-.7 3.3 1.2 2.8z" fill="#1B1B20"/><path d="M41.1 63.5c8-8.4 21.6-11.9 31.5-4.6 5.4 4 8.1 10.2 10.2 16.3 1.1 3.5 2 6.9 2.2 10.6.2 3.8 0 7.6-.1 11.4a42.6 42.6 0 004.4 20.9 136 136 0 0010.5 20l6.4 10.2c1.8 2.8 3.5 6 6 8.3 2.1 1.9 4.7 3.2 7.3 4.4 3 1.4 5.9 2.8 9.2 3.7 8.2 2.1 16.5 1 24.7.3 9-.8 18.1-1.6 27.2-1.3 1.9.1 1.9-2.9 0-3-8.1-.2-16.2.4-24.3 1.1-7.6.7-15.4 1.9-23 .8-3.6-.5-6.9-1.6-10.2-3.2-2.6-1.2-5.4-2.3-7.7-4.1-2.6-2-4.3-5-6-7.7l-6.5-10.2c-4.1-6.6-7.9-13.3-10.9-20.5-1.4-3.4-2.9-7-3.5-10.6-.7-3.6-.6-7.3-.4-10.9.1-3.8.3-7.6-.1-11.4-.4-3.6-1.3-6.9-2.5-10.3A34.4 34.4 0 0075.1 57C64 48.2 48.3 51.7 39 61.4c-1.4 1.4.8 3.5 2.1 2.1z" fill="#1B1B20"/><path d="M71.1 106.4a39.8 39.8 0 01-24.9 20.5c-.7.2-1.3.4-1.7.3l-2.1-.6c-9.3-3.1-13.3-12.7-14.1-21.8-.5-5.4-.1-10.8 1.1-16.1.5-1.9-2.4-2.7-2.8-.8a46 46 0 002.5 30.8 21.9 21.9 0 0014.6 11.5c1.7.4 3.4-.3 5-.8a43.4 43.4 0 0024.9-21.5c.9-1.8-1.7-3.3-2.5-1.5z" fill="#1B1B20"/><path d="M40 60.9c-2.2-1.3-4.7-1.9-7.1-.9a10 10 0 00-4.6 4.7 34 34 0 00-2.5 8.4c-.6 3.1-1.1 6.3-.7 9.4.7 4.9 5.3 9.7 10.6 7.6a11 11 0 005.1-4.9c1.4-2.4 2.5-5.2 3.3-7.9 1.9-5.8 1.3-12.8-4.1-16.4-1.6-1.1-3.1 1.5-1.5 2.6 3.6 2.4 4.2 7.1 3.4 11a32.3 32.3 0 01-5.4 11.6c-3.1 3.1-7.2.7-8.2-3.1-.6-2.3-.3-4.9.1-7.2.4-2.6 1-5.1 1.7-7.6.6-1.8 1.4-3.7 2.9-4.9 1.7-1.4 3.6-1 5.4.1 1.7 1.1 3.2-1.5 1.6-2.5zM67 72.1c-.8-3.8-4-7.5-7.7-8.7a5.8 5.8 0 00-5.4.9c-1.9 1.5-2.8 4-3.6 6.3-1.6 4.9-2.6 11.4-.3 16.2 2.2 4.7 8.1 6.4 12 2.6 1.9-1.8 3-4.4 3.8-6.9 1.2-3.3 1.8-6.8 1.2-10.4-.3-1.9-3.2-1.1-2.9.8.4 2.5 0 5-.7 7.4-.5 1.9-1.2 3.7-2.2 5.4-.8 1.3-2 2.6-3.7 2.9-1.9.2-3.6-1-4.5-2.6-2.1-3.6-1.3-8.8-.4-12.6.5-2 1.1-4.1 2.3-5.8.7-1 1.7-1.6 2.9-1.4 3.1.5 5.7 3.9 6.2 6.8.5 1.8 3.4 1 3-.9z" fill="#1B1B20"/><path d="M55.4 77.3v1.2c.1.4.3.7.6 1 .3.3.6.5 1 .6h1.2l.6-.2.2-.2.2-.2c.3-.3.5-.6.6-1v-1.2l-.1-.2-.2-.5a3 3 0 00-.8-.8l-.6-.2-.5-.1-.4.1-.3.1-.4.2-.2.2c-.3.3-.4.5-.5.9v1.3c.1.4.3.8.6 1.1.3.3.7.5 1.1.6l.6.1.5-.1.5-.2c.4-.2.7-.5.9-.9a2 2 0 00.2-1.7c-.2-.5-.5-1-1-1.2l-.5-.2h-.6l-.5.1c-.5.1-1 .5-1.2.9l-.2.6v.6c0 .2.1.4.3.5l.4.4c.3.2.8.3 1.2.2.4-.1.7-.3.9-.7v-.1l-.2.3.1-.1-.3.2.1-.1-.4.2h.2l-.4.1h.2l-.4-.1.2.1-.4-.2.1.1-.3-.2.1.1-.2-.3.1.1-.2-.4v.1l-.1-.4v.1l.1-.4v.2l.2-.4-.1.2.2-.3-.2.2.3-.2-.2.1.4-.2h-.2l.4-.1h-.2l.4.1-.2-.1.4.2-.2-.1.3.2-.2-.2.2.3-.1-.2.2.4-.1-.2.1.4v-.2l-.1.4.1-.2-.2.4.1-.1-.2.3.1-.1-.3.2.1-.1-.4.2h.1l-.4.1h.1l-.4-.1.2.1-.4-.2.2.1-.3-.2.1.1-.2-.3.1.2-.2-.4.1.3-.1-.4v.2l.1-.4-.1.2.2-.4-.1.2.2-.3-.1.1.3-.2-.1.1.4-.2h-.2l.4-.1h-.2l.4.1-.2-.1.4.2-.2-.1.3.2-.2-.2.2.3-.1-.2.2.4v-.2l.1.4v-.2l-.1.4V78v-.6l-.2-.6a.8.8 0 00-.4-.4l-.5-.3c-.4-.1-.8-.1-1.2.2l-.3.2-.4.8zM33.3 74.9l-.5.8v1l.5.8.3.3.6.3h.6l.6-.2.3-.2.4-.7.1-.6v-.3l-.1-.6-.2-.4c-.2-.4-.5-.6-.9-.7-.4-.1-1-.1-1.4.2l-.6.6-.2.5-.1.5.1.5.2.4.1.2.1.2.4.3.5.2h.9l.5-.2.4-.3.1-.1.3-.3.1-.1.2-.5.1-.7-.1-.9c-.1-.5-.6-.9-1-1l-.6-.1h-.6l-.5.2-.2.1-.4.4-.2.2-.2.2c-.2.4-.3.7-.3 1.1l.1.6.3.5.5.3.6.1.4-.1.7-.4.2-.3.2-.8v-.1l-.1.4.1-.2-.2.4.1-.2-.2.3.2-.2-.3.2.2-.1-.4.2.2-.1-.4.1h.2l-.4-.1h.1l-1-1 .1.3-.1-.4v.3l.1-.4-.1.2.2-.4-.1.1.2-.3-.1.1c0 .2.1.1.2 0l-.1.1.3-.1h-.1l.4-.1h-.1l.4.1h-.1l.4.2-.1-.1.3.2.2.3.2.4v-.1l.1.4v-.1l-.1.4v-.1l-.2.4.1-.1-.2.3.1-.1-.3.2h.1l-.4.2h.1l-.4.1h.1l-.4-.1h.1l-.4-.2-.5-.5-.2-.4.1.3-.1-.4v.3l.1-.4v.2l1.8-1h-.1l.4.2h-.1l.3.2-.1-.1.2.3-.1-.1.2.4v-.1l.1.4v-.1l-.1.4v-.1l-.2.4V77l-.2.3.3-.5.1-.6-.1-.6-.3-.5-.3-.2-.8-.2-.4.1c-.3-.2-.6-.1-.8.1zM54.8 126.6a16.3 16.3 0 002.1-18.7c-1-1.7-3.5-.2-2.6 1.5 2.7 4.7 2 11-1.6 15-1.3 1.5.8 3.6 2.1 2.2zM221.2 26.4l6.4-3.9c.7-.4 1-1.4.5-2.1-.4-.7-1.3-1-2.1-.5l-6.4 3.9c-.7.4-1 1.4-.5 2.1.5.7 1.4 1 2.1.5zM224.1 86.5c3.9 1.8 7.9 3.1 12.1 3.9.8.2 1.6-.2 1.8-1 .2-.7-.2-1.7-1-1.8-3.9-.8-7.8-1.9-11.4-3.6-.7-.3-1.6-.2-2.1.5-.3.6-.1 1.6.6 2zM107.4 41.2c.5 4.2 1.4 8.3 3 12.3.2.8 1 1.3 1.7 1 .7-.1 1.4-1 1-1.7a50.4 50.4 0 01-2.8-11.6c-.1-.8-.7-1.5-1.5-1.6-.7 0-1.4.8-1.4 1.6zM237.7 85.8c1.9 0 1.9-3 0-3s-1.9 3 0 3zM177.2 166.7l4.5.2 2.3.1c.8 0 1.6.1 2.4-.1.8-.2 1.3-1.1 1-1.8-.2-.8-1-1.3-1.8-1 0 0-.5.1-.2.1h-1.6l-2.2-.1-4.4-.2c-.8 0-1.5.7-1.5 1.5 0 .7.6 1.3 1.5 1.3zM179.5 152.7c-8.1.7-16.3 1.5-24.4 1.7-7.4.1-14.9-.5-21.9-3.1a33.2 33.2 0 01-16.1-12.5 40.2 40.2 0 01-4.6-8.7c-1.3-3.2-2.6-6.6-5.2-9.1-2.5-2.4-6.2-3.7-9.5-2.4-3 1.2-4.4 4-4.6 7.1-.2 1.9 2.9 1.9 3 0 .2-2.5 1.7-4.5 4.3-4.6 3.2-.1 5.6 2.6 7.1 5.1 1.6 2.9 2.6 6.2 4.1 9.2 1.5 2.9 3.3 5.6 5.3 8.1 9 10.8 23.2 13.9 36.7 13.9 8.6 0 17.3-.9 25.9-1.7 1.8-.2 1.9-3.2-.1-3zM190.7 153.3a26.7 26.7 0 0020.2-1.1 30.8 30.8 0 0014.3-14.2c1.8-3.5 2.9-7.3 3.5-11.1.3-1.9-2.6-2.7-2.9-.8a31.4 31.4 0 01-11.3 20.5c-6.4 5-15.3 6.7-23 3.8-1.8-.6-2.6 2.3-.8 2.9z" fill="#1B1B20"/><path d="M104.3 119.1c-.9-2.9-.2-5.9.2-8.8.4-2.8.9-5.6 1.8-8.2.8-2.6 2.1-5.1 3.9-7.2 1.9-2.2 4.2-4 6.6-5.6 1.6-1.1.1-3.7-1.5-2.6a38.2 38.2 0 00-7.2 6.1 23 23 0 00-4.5 8.1c-1 2.9-1.5 6-2 9-.5 3.3-1.2 6.7-.2 10 .6 1.8 3.4 1 2.9-.8zM143.5 104.3c-5.8 6-11.5 12.1-16.9 18.5-1.2 1.5.9 3.6 2.1 2.1 5.4-6.3 11.1-12.5 16.9-18.5 1.4-1.3-.8-3.5-2.1-2.1z" fill="#1B1B20"/><path d="M127.6 126.1a109 109 0 0110.9 15.3c1 1.7 3.6.1 2.6-1.5-3.4-5.6-7.2-10.9-11.4-15.9-.5-.6-1.6-.5-2.1 0-.6.6-.5 1.5 0 2.1z" fill="#1B1B20"/><path d="M139.2 141.5c6.7.6 13.4 1 20.1 1.2 1.9.1 1.9-2.9 0-3-6.7-.2-13.4-.6-20.1-1.2-2-.2-2 2.8 0 3z" fill="#1B1B20"/><path d="M139.4 139.8a47.7 47.7 0 00-6.2 10.4c-.3.7-.2 1.6.5 2.1.6.4 1.7.2 2.1-.5 1.5-3.5 3.5-6.9 5.8-9.8.5-.6.6-1.5 0-2.1-.6-.6-1.7-.7-2.2-.1zM157.9 141.8l7.5 13c1 1.7 3.6.2 2.6-1.5l-7.5-13c-1-1.7-3.6-.2-2.6 1.5z" fill="#1B1B20"/><path d="M159.7 140.7c4.7-4.7 8.9-9.9 12.7-15.4 1.1-1.6-1.5-3.1-2.6-1.5-3.6 5.3-7.7 10.2-12.2 14.8-1.4 1.4.8 3.5 2.1 2.1z" fill="#1B1B20"/><path d="M160.2 108.6a59.8 59.8 0 018.5 15.7c.4 1 1.7 1.5 2.5.7l.6-.6c1.4-1.4-.8-3.5-2.1-2.1l-.6.6 2.5.7a63.3 63.3 0 00-8.8-16.4c-.5-.6-1.3-1-2.1-.5-.6.3-1 1.3-.5 1.9z" fill="#1B1B20"/><path d="M143 107.9l18.2 1.5c1.9.2 1.9-2.8 0-3l-18.2-1.5c-2-.2-2 2.8 0 3zM126.6 123l-11.2 15.7c-.5.7-.1 1.7.5 2.1.8.4 1.6.1 2.1-.5l11.2-15.7c.5-.7.1-1.7-.5-2.1-.8-.5-1.6-.2-2.1.5z" fill="#1B1B20"/><path d="M163.6 109c1.9 0 1.9-3 0-3-2 0-2 3 0 3zM171.8 125.6c4.1 0 8.3.2 12.4.6.8.1 1.5-.7 1.5-1.5 0-.9-.7-1.4-1.5-1.5-4.1-.4-8.2-.6-12.4-.6-1.9 0-1.9 3 0 3z" fill="#1B1B20"/><path d="M163.2 106a25 25 0 01-2.1-3.5l-.5-1-.2-.4-.1-.2c.1.2.1.2 0 0l-.7-2c-.2-.7-1-1.3-1.8-1-.7.2-1.3 1-1 1.8.9 2.8 2.2 5.4 3.9 7.8.4.6 1.3 1 2.1.5.5-.3.9-1.3.4-2z" fill="#1B1B20"/><path d="M164.9 106.9c2.9-3.5 6.1-6.7 9.6-9.6.6-.5.5-1.6 0-2.1-.6-.6-1.5-.5-2.1 0a72.6 72.6 0 00-9.6 9.6c-.5.6-.6 1.5 0 2.1.6.5 1.6.6 2.1 0zM192.9 136.1l5.2 7.5c.4.6 1.3 1 2.1.5.6-.4 1-1.4.5-2.1l-5.2-7.5c-.4-.6-1.3-1-2.1-.5-.6.5-1 1.4-.5 2.1z" fill="#1B1B20"/><path d="M198.2 142.5a37.2 37.2 0 01-3.3 5.8l-.6.9-.3.4c-.1.1-.1.1 0 0l-.2.2c-.3.3-.4.6-.4 1.1 0 .4.2.8.4 1.1.5.5 1.6.7 2.1 0 1.9-2.5 3.6-5.1 4.9-7.9.3-.7.2-1.6-.5-2.1-.7-.4-1.8-.3-2.1.5zM66.9 117.2a45.5 45.5 0 0012.2 16c4.5 3.9 9.8 8.1 15.9 8.9 2.8.4 5.5.7 8.2 1.8 1.8.7 2.6-2.2.8-2.9-2.9-1.2-5.8-1.4-8.8-1.9a22 22 0 01-9.6-4.6 47 47 0 01-16-18.8c-.9-1.7-3.5-.2-2.7 1.5z" fill="#1B1B20"/><path d="M59.4 121.9a71.8 71.8 0 0017.1 16.8 72 72 0 0019.3 8.9c4.1 1.2 8.2 2.1 12.4 3 1.9.4 2.7-2.5.8-2.9-6.9-1.4-13.9-3.1-20.4-5.8a58.3 58.3 0 01-17.4-11.2 75.2 75.2 0 01-9.2-10.3c-1.1-1.6-3.8-.1-2.6 1.5zM194.1 104.9l3.2 4.1 1.5 2c.3.5.6.7.3 1.2-.3.6-.8 1-1.2 1.5l-1.8 1.9-3.5 3.8c-1.3 1.4.8 3.5 2.1 2.1l4.1-4.4c1.2-1.3 2.9-2.7 3.4-4.4.5-2-1-3.5-2.1-5l-3.8-4.9c-.5-.6-1.6-.5-2.1 0-.8.6-.6 1.4-.1 2.1z" fill="#1B1B20"/><path d="M201.7 113.4l8.3-.4c.8 0 1.5-.7 1.5-1.5s-.7-1.5-1.5-1.5l-8.3.4c-.8 0-1.5.7-1.5 1.5s.6 1.6 1.5 1.5zM200.7 144.2l7.4-.5c1.2-.1 2.5-.1 3.6-.3 1.2-.3 1.8-1.1 2.1-2.1 1.6-4.3 3.6-8.3 6.3-12 .5-.7.1-1.7-.5-2.1-.8-.4-1.6-.1-2.1.5-2.4 3.3-4.4 7-5.9 10.8l-.5 1.4-.2.6c.1-.1.1-.1-.1 0-1.1.2-2.3.2-3.3.2l-6.9.5c-1.8.1-1.8 3.1.1 3zM112.8 156.8a49 49 0 01-8.5 15.5c-1.7 2.1-4 4.1-4.7 6.8-.7 2.6.2 5.4 2.7 6.6 1.1.5 2.4.7 3.6 1l5.3 1a79 79 0 0014.5 1.5c1.6 0 3.3.1 4.8-.3 2.8-.7 3.5-3.4 3.8-6 .9-7-2.2-13.7-5-19.9-.8-1.7-3.4-.2-2.6 1.5 2.2 4.8 4.6 9.9 4.8 15.3 0 1.3 0 2.6-.3 3.8-.2 1.1-.4 2.2-1.6 2.4-2.6.5-5.6.1-8.2-.1-2.8-.2-5.6-.6-8.3-1.1-2.8-.5-5.7-.9-8.4-1.6-1-.3-1.9-.7-2.2-1.7-.3-1.1.2-2.3.8-3.2 1.3-2.1 3.2-3.8 4.7-5.8 3.4-4.5 6-9.6 7.8-15 .5-1.7-2.4-2.5-3-.7z" fill="#1B1B20"/><path d="M133.8 183.3l8.7-.9c2.4-.3 5-1.2 5.1-4 .1-2.5-1.8-4.4-2.8-6.5a13 13 0 01-1-7c.1-.8-.8-1.5-1.5-1.5-.9 0-1.4.7-1.5 1.5a16.4 16.4 0 002.1 9.7c.5.9 1.2 1.7 1.5 2.7.2.5.4 1.2 0 1.7-.6.6-2.1.6-2.9.6l-7.7.8c-.8.1-1.5.6-1.5 1.5 0 .7.7 1.5 1.5 1.4zM105.2 182.8v.1-.1-.3.1l.1-.3.1-.2c-.1.2-.1.2 0 .1l.2-.3.1-.1-.1.1.5-.5-.1.1.2-.1.4-.2c.3-.2-.3.1 0 0l.4-.1h.8-.1.1l.3.1c-.2-.1-.2-.1-.1 0l.2.1.3.2.2.1c-.2-.1-.2-.1-.1 0l.5.5.1.2c-.1-.2-.1-.2 0-.1l.2.3.4.7c-.1-.4 0 0 0 0l.1.4.2.7v-.1V184.8c0 .8.7 1.5 1.5 1.5s1.5-.7 1.5-1.5c0-2.3-1.1-4.7-3-6-2-1.3-4.8-.9-6.5.8a4.3 4.3 0 00-1.1 3.9c.2.8 1.1 1.3 1.8 1 .7-.1 1.1-.9.9-1.7z" fill="#1B1B20"/><path d="M113.8 184.2l.2-.7c-.1.3 0 0 .1-.1l.2-.3.1-.1.2-.2.5-.5.1-.1.3-.2.3-.2c-.3.1.1 0 .1 0l.7-.2h-.1H117.1c.2 0 .3 0 0 0l.4.1.4.1c.4.1-.2-.1.1 0l.7.4c.2.1-.1-.1 0 0l.3.3.2.2.1.1.4.6c.2.3-.1-.3 0 .1l.1.4.1.3v-.1.3c.1.8.7 1.5 1.5 1.5s1.6-.7 1.5-1.5c-.2-3-2.6-5.5-5.7-5.8-2.9-.2-5.7 2-6.3 4.8-.2.8.2 1.7 1 1.8.8.2 1.8-.2 1.9-1z" fill="#1B1B20"/><path d="M122 183.1l.5-.3c.3-.1-.3.1 0 0l.3-.1.5-.1c.3-.1-.2 0 0 0h1.2c-.2 0-.3 0 0 0l.5.1.5.2-.1-.1.1.1.3.1.5.3.2.2-.1-.1.1.1.4.4.2.2c.2.2 0 .1 0 0l.3.5.1.3c.1.1-.1-.3 0 0l.2.6c.2.8 1.1 1.3 1.8 1 .8-.3 1.2-1 1-1.8-1-4.2-6.4-6.4-10-4.1-.7.4-1 1.4-.5 2.1.4.5 1.3.8 2 .4zM135.8 176.9c.1-.1.3-.3 0 0 0 0 0-.1 0 0l.5-.3c-.5.2-.1 0 .1 0H137c.3 0-.4-.1-.2 0l.4.1.2.1c.1 0 .3.1.1 0-.3-.1 0 0 0 0l.2.1.4.2-.1-.1.2.1.3.3-.1-.1.1.2.1.2c.1.3-.1-.2 0-.1l.1.4c.1.3 0-.4 0-.1v.3c0 .8.7 1.5 1.5 1.5s1.5-.7 1.5-1.5c0-1.6-.9-2.8-2.1-3.7a5.6 5.6 0 00-4-.9c-.8.1-1.5.6-2.1 1.1-.6.5-.6 1.6 0 2.1.8.6 1.7.6 2.3.1zM191.3 161.2c-1.6 5.9-5.1 11-7.6 16.6-1 2.3-2.5 5-.6 7.2 1.3 1.6 3.4 2.3 5.4 2.6 2.4.4 4.9.3 7.3.4 2.9.2 5.9.3 8.8.1 2.9-.2 5.7-.8 8.3-2.1 1.1-.5 2.9-1.3 3.2-2.5.4-1.6.3-3.5.2-5.1a49.4 49.4 0 00-6.1-20.2c-.9-1.7-3.5-.2-2.6 1.5a42.5 42.5 0 015.5 23.6l.7-1.3c-6.4 4.4-14.4 3-21.7 2.8-2-.1-5.5.1-6.8-1.8-.4-.5-.2-.8 0-1.4l1-2.6c.7-1.7 1.6-3.4 2.5-5 2.1-3.9 4.1-7.8 5.3-12.1.6-1.8-2.3-2.6-2.8-.7z" fill="#1B1B20"/><path d="M216.5 181.5c2.5-.5 5.3-.6 7.6-1.8 2-1 3-3 2.9-5.3-.2-7.2-6.6-13.1-5.3-20.4.3-1.9-2.6-2.7-2.9-.8-.6 3.5.1 6.8 1.5 10.1 1.3 3.1 2.9 6.1 3.6 9.4.4 1.8.5 3.6-1.2 4.4-2.1 1-4.7 1.1-6.9 1.5-2 .4-1.2 3.3.7 2.9zM187.7 183.7c0-.1-.1-.4-.1-.1v-.1c.1.1-.1.4 0 .1v-.1l-.1.1.1-.2c.2-.3 0 0 0 0l.2-.3.1-.1c-.1.2.1-.1.2-.1l.3-.2.3-.1c-.2.1-.2.1-.1 0h.1l.4-.1s.4-.1.2 0h.5c.4 0-.3-.1.1 0l.3.1.3.1c.3.1-.2-.1.1 0 .2.1.5.2.6.4l-.1-.1.1.1.2.2.2.2.1.1.3.6c.2.3-.1-.3 0 0l.1.3.1.3v.1c.1.8.6 1.5 1.5 1.5.7 0 1.6-.7 1.5-1.5a5.8 5.8 0 00-1.7-3.7 5.4 5.4 0 00-3.9-1.7c-1.4-.1-2.9.5-4 1.5-1 .9-1.6 2.4-1.2 3.7.3.7 1 1.3 1.8 1 1.2-.4 1.8-1.2 1.5-2z" fill="#1B1B20"/><path d="M196.4 184.1l.1-.6c0-.2-.1.2 0 0l.2-.3.1-.1.1-.1.3-.3.1-.1.2-.1.3-.2.3-.2c.1-.1-.2.1.1 0l.7-.2.3-.1H200h.1l.3.1.3.1c.1 0 .4.2.1 0l.6.3.1.1.2.2.2.2.1.1.3.5c-.2-.3 0 0 0 .1l.1.3c.1.8 1.1 1.3 1.8 1 .8-.3 1.2-1 1-1.8-.5-2.7-3.5-4.3-6-4.2-2.6.1-5.5 1.9-5.9 4.6-.1.8.2 1.7 1 1.8.9.1 1.9-.3 2.1-1.1z" fill="#1B1B20"/><path d="M204.4 182.5l.5-.3h.1c.1-.1.1-.1 0 0-.1 0-.1 0 0 0l.1-.1.5-.2.3-.1h.1c.1 0 .1 0 0 0s-.1 0 0 0h1.5-.1.1l.3.1.5.1.5.2-.1-.1.1.1.2.1.4.3c.2.1.1.2 0 0l.2.2.3.3c.2.2 0 .1 0 0l.1.2.1.2c.1.2-.1-.3 0 0 .3.7 1 1.3 1.8 1 .7-.2 1.4-1.1 1-1.8-1.5-3.8-7-4.9-10.2-2.7-.7.4-1 1.3-.5 2.1.5.6 1.4.9 2.2.4zM217.6 176.1s.2-.2 0 0l.4-.3c.2-.1-.4.2-.1 0l.2-.1.4-.1c.4-.1-.3 0-.1 0H219c.2 0 .7.1.1 0l.4.1.4.1.2.1c.2.1-.4-.2-.1 0l.4.2.2.1-.1-.1.3.3-.1-.1.1.2.1.2-.1-.2c0 .2.1.6 0 0 0 .4.1.8.4 1.1.3.3.7.5 1.1.4.7 0 1.6-.7 1.5-1.5-.1-.9-.5-1.8-1.2-2.4-.6-.6-1.4-1-2.2-1.2a5.4 5.4 0 00-5 1.1c-.6.5-.6 1.6 0 2.1.7.6 1.6.6 2.2 0zM104.4 107.3c2.9-.1 5.8-.1 8.7.1l4.4.3 2.1.2c.6.1.6.3.8.8a239 239 0 015.1 16.4c.5 1.9 3.4 1.1 2.9-.8l-2.7-9.3-1.5-4.7c-.4-1.3-.8-2.8-1.5-4-.8-1.2-2.1-1.4-3.4-1.5l-4.8-.4c-3.3-.2-6.7-.3-10-.1-2 .1-2 3.1-.1 3z" fill="#1B1B20"/><path d="M124.3 99.3c-.1.3 0-.3 0 0l-.1.2c0 .1-.1.3 0 .1.1-.2 0 0 0 .1l-.3.5c-.2.2.2-.2 0-.1l-.1.2-.7.7c-.2.2.2-.2 0 0l-.2.2-.4.3-1.8 1.4a6 6 0 00-1.4 2.1c-.1.3 0 .9.2 1.2.2.3.5.6.9.7.9.2 1.5-.3 1.8-1-.2.4-.1.1 0 0l.1-.2.1-.2c.1-.2-.2.2 0 .1l.7-.7.2-.1c.1-.1-.3.2 0 0l.4-.3.9-.6c.7-.5 1.4-1.1 1.9-1.8a5 5 0 00.9-2.4c.1-.8-.7-1.5-1.5-1.5-1-.3-1.6.3-1.6 1.1zM82.1 67.4l-1-1a17.5 17.5 0 00-5-6.1l-.7-2.5c-1.1-3.7-6.9-2.1-5.8 1.6 1.2 4.3 2.5 8.7 4.8 12.5 1.7 2.8 4.4 6.5 8.1 6.2 1.5-.1 2.4-.9 2.9-2.2 1.1-2.9-1.9-6.3-3.3-8.5zM86.9 101.4a7 7 0 01-1.3-2.6c.2-1.7.3-3.4.2-5.1.3-.8.7-1.6 1.2-2.3 1.6-2.2-1-5.1-3.4-4.4-5.5 1.6-5.7 7.3-4.3 12l.1.2c.2 1.2.6 2.4 1.3 3.2.5 1.1 1.2 2.2 2 3.2 2.4 3 6.6-1.2 4.2-4.2zM78.6 82.8l-.6-1.1-.7-.6c-.2-.2-.6-.2-.9-.2l-.6-.3c-.4-.1-.8-.1-1.2.2l-.3.2-.4.7a5.3 5.3 0 001.2 5.4c.5.5 1.2.5 1.8.2a3.7 3.7 0 001.8-3c.2-.5.1-1-.1-1.5zM95.9 129.2l-.1-.1.4-.4c.6-.7.6-1.9-.3-2.4a11.9 11.9 0 01-6-7.5c.1-.9.2-1.7.1-2.6 0-1.6-2.5-2.1-2.9-.5-.5.1-1 .4-1.2 1-1.1 3.4-.3 7.1 1.7 10.1l.3.5c.4.7 1 1.3 1.7 1.8 1.4 1.3 3.2 2.3 5.2 2.7 1.5.5 2.6-1.8 1.1-2.6zM83.6 111.5c-.1-.6-.2-1.1-.5-1.6a3.4 3.4 0 00-2.7-1.6c-1 0-2 .6-2.4 1.6-.2.5-.3.9-.3 1.4-.5.8-.7 1.9-.4 2.8l.4.8c.2.2.5.4.8.4l.9.1 1.5-.2a4 4 0 002.4-2c.2-.6.4-1.2.3-1.7zM42.4 110.1v-.4l-.2-.5c-.1-.3-.5-.6-.7-.7l-.2-.1c-.2-.2-.3-.3-.6-.3l-.8-.2-.5.1a4 4 0 00-.9.5l-.3.4-.3.9-.1.3v.1l-.1.7.1.6v.1l.2.5v.1l.4.5.6.4.8.2.5-.1.9-.5.1-.1.4-.3.4-.5c.2-.4.4-.8.3-1.3v-.4zM50.9 111.6l-.1-.7-.1-.3-.4-.7a1 1 0 00-.6-.5l-.7-.2c-.3-.1-.5 0-.8 0l-.5.2-.7.7v.1h-.1l-.4.3a2 2 0 00-.5.9v.6l.1.5.2.5.4.5 1 .6h.1l.6.1h.1l.6-.1h.1l.3-.1.3-.1.4-.3c.3-.3.5-.7.6-1.1v-.1-.3-.3l.1-.2zM64.9 54.6l-6.3.2c-.8 0-1.5 0-2.2-.2-.8-.2-1.2-.4-1.7-.9-.9-.9-2.1-.3-2.4.6-.4.1-.7.4-.9.7-.4.8-.1 1.6.5 2.1 4 2.8 9.6 2.9 13.7.3 1.2-.7.8-2.8-.7-2.8zM112.7 163c-.6-.5-1.7-.1-2.1.5l-.1.3c-.4.3-.7.7-.7 1.2 0 .7.4 1.2 1 1.4V166.7l-.1.2-.2.6-.1.3-.3.6-.3.5-.2.3-.8.9-.2.2-.1.1-.5.3-.5.3-.3.1c-.1 0-.4.2-.1 0-.7.3-1.3 1-1 1.8.2.7 1.1 1.3 1.8 1 2.3-.8 5-2 6.1-4.4a5 5 0 00-1.3-6.5zM121.6 170.7l-.3-.7a2 2 0 00-.8-.8 2 2 0 00-1.1-.3l-.7.1c-.4.2-.8.4-1.1.8l-.1.2-.1.1-.1.1-.3.4-.2.5-.1.7c0 .6.2 1.2.7 1.7l.4.3.2.1.5.2.6.1.8-.1.2-.1.5-.2c.6-.4.9-.9 1.1-1.5v-.2l.1-.6-.2-.8zM131.4 175.2l-.4-2.4a641 641 0 01-.9-5.5c-.1-.8-1.1-1.3-1.8-1-.5.1-.8.4-.9.8-.5.1-.9.5-1 1-.5 2.9-.1 5.9 1.2 8.6.3.7.7 1.5 1.4 1.9 1.1.6 2.3 0 2.7-1.1.1-.7-.2-1.6-.3-2.3zM222.7 167.4l-.7-.7-.2-.2-.3-.4-.5-.9-.1-.2v-.2l-.1-.3-.3-.9-.1-.5v-.2-1-.6-.1-.2c.1-.8-.2-1.7-1-1.8-.3-.1-.6 0-1 .1-.5 0-1 .2-1.3.7a7.4 7.4 0 004.2 10.1c1.4.3 2.5-1.7 1.4-2.7zM196.6 168.5c-.6-1.8-2.3-2.7-4-3.2-.8-.2-1.7.3-1.8 1-.2.8.2 1.6 1 1.8a10.2 10.2 0 00-5 7c-.1 1.7 2.6 2.1 2.9.4l.3-.9v-.1l.2-.3.3-.2.3-.2.4-.2.2-.1c1.2-.4 2.4-.5 3.5-1.1a3.3 3.3 0 001.7-3.9zM202.4 165.4c-.4-1-2.1-.9-2.6 0a9 9 0 00-1 4.3v.2c-.3.4-.6.9-.7 1.4-.2.7-.1 1.5.3 2.2 1 1.6 3.1 1.4 4.2.1 2-2.5.9-5.7-.2-8.2zM213.6 173.8l-.7-2.4-.3-.8c.1-.4.2-.8.1-1.2l-.3-.9c.4-.7.1-1.7-.5-2-.7-.4-1.6-.2-2.1.5-.8 1.3-1.8 2.6-2.5 4-.8 1.6-1.1 3.5.4 4.8l2 1.3c.8.4 1.6 1.1 2.5 1 1.1-.1 1.7-1 1.8-2.1 0-.8-.3-1.5-.4-2.2z" fill="#1B1B20"/><path d="M92.4 36.7c-.7-.9-1.7-2.3-3.2-2.1-1.5.2-2.3 2.4-3 3.6a102.7 102.7 0 00-4.7 10.1c-.3.8-.1 1.9 1 2l5.5 1.4 13 4.5h1.3l2 .7c1.4.6 2.8-.9 2-2.2-4.3-6.2-8.9-12.1-13.9-18z" fill="#FFD000"/><path d="M80.4 51c8.3 3.4 16.9 6 25.6 7.5 2 .3 2.5-2.7.6-3-8.5-1.4-16.9-3.8-24.9-7.1-1.7-.8-3 2-1.3 2.7z" fill="#1B1B20"/><path d="M88.2 47c5.2 3.3 10.4 6.5 15.7 9.6.7.4 1.7 0 2-.8.5-.7 0-1.5-.7-2-5.3-3.1-10.6-6.4-15.8-9.6-.6-.4-1.7 0-2 .8-.4.8 0 1.5.8 2z" fill="#1B1B20"/><path d="M89.2 34.5L104 55.9c1 1.5 3.6-.2 2.5-1.7L91.7 32.8c-1.1-1.6-3.6.1-2.5 1.7z" fill="#1B1B20"/><path d="M80.4 50.1a21 21 0 006.5-.6c1.8-.6 4.7-1.3 5.2-3.4.2-1 0-2.1 0-3.2l-.2-3.5a62 62 0 00-1-7L88 33v-.5c0 .3 0-.2 0 0l-.3.6-.8 1.3-2.3 3.3c-2.1 2.7-3.4 6-5.6 8.6-1.3 1.5 1 3.4 2.3 2 1.5-1.9 2.6-4 3.8-6.1.7-1.2 1.3-2.2 2.2-3.2l2.6-3.8c.6-1 1.3-2.1 1-3.4-.3-1.7-3.1-1-2.8.5.7 4 1 8 1.1 12l.1.8c0-.2-.1 0-.2 0l-.6.3-2.7 1a17 17 0 01-5.4.3c-.8 0-1.5 1-1.5 1.7 0 1.2.7 1.7 1.5 1.7zM104 61.2l-7.6.6c-.8 0-1.4 1-1.2 1.7.2.8 1 1.3 1.8 1.2l7.6-.6c.8 0 1.4-1 1.2-1.7-.2-.9-.9-1.4-1.7-1.2z" fill="#1B1B20"/></g><path d="M223.5 17.1c1.1-.5 2.7-1.2 2.8-2.6.2-1.6-1.8-2.8-2.8-3.7a102.6 102.6 0 00-8.9-7c-.7-.4-1.8-.4-2.2.6l-2.5 5.1c-2.4 4-5 7.8-7.2 11.8a2 2 0 00-.3 1.2l-1.2 1.8c-.8 1.2.3 3 1.8 2.3 7-2.8 13.8-6 20.5-9.5z" fill="#FFD000"/><path d="M212.2 2.3c-5 7.3-9.5 15-12.8 23.3-.8 1.9 2 3 2.7 1.2 3.2-8 7.4-15.6 12.4-22.7 1.1-1.5-1.2-3.4-2.3-1.8z" fill="#1B1B20"/><path d="M214.5 10.7A511 511 0 00201.6 24c-.5.5-.3 1.6.3 2.1.7.6 1.6.4 2.2-.3l12.8-13.3c.6-.5.4-1.6-.3-2.1-.7-.6-1.5-.4-2.1.3z" fill="#1B1B20"/><path d="M226.4 14.4l-24 9.8c-1.8.7-.7 3.5 1 2.8l24.2-9.8c1.7-.7.6-3.5-1.2-2.8z" fill="#1B1B20"/><path d="M213 2.4c-.5 2-.8 4.4-.7 6.5.2 1.9.2 4.9 2.2 5.8.9.4 2 .6 3 .7l3.5.5c2.3.4 4.6.6 7 .7l.2-3a1151 1151 0 00.4 0l-.5-.3-1-1c-1-1.1-1.8-2.2-2.8-3-2.2-2.7-5.1-4.7-7.1-7.4-1.2-1.6-3.6.2-2.4 1.8 1.4 1.9 3.2 3.4 5 5l2.7 2.9 3 3.4c1 .8 1.9 1.7 3.2 1.8 1.7 0 1.7-3 0-3-4-.2-8-.7-11.8-1.5h-.8V12l-.2-.7-.3-2.8c0-1.8.3-3.6.8-5.4.2-.7-.5-1.6-1.2-1.7-1.3-.4-1.9.3-2.1 1zM193.8 19.3l3.8-6.7c.3-.7 0-1.7-.8-2-.8-.3-1.6.1-2 .8l-3.8 6.7c-.3.7 0 1.7.8 2 .8.3 1.6 0 2-.8z" fill="#1B1B20"/></g><defs><clipPath id="clip0"><path fill="#fff" d="M0 0h264v200H0z"/></clipPath><clipPath id="clip1"><path fill="#fff" transform="translate(25 10)" d="M0 0h214.2v179.3H0z"/></clipPath></defs></svg>